<mxfile host="app.diagrams.net" modified="2023-09-01T11:31:26.902Z" agent="Mozilla/5.0 (X11; Linux x86_64) AppleWebKit/537.36 (KHTML, like Gecko) Chrome/107.0.0.0 Safari/537.36" version="21.7.1" etag="YnI3ndi5fTdNgnZrPvQ5" type="github">
  <diagram name="PÃ¡gina-1" id="ZosY3NmGKjWiQb3FLo95">
    <mxGraphModel>
      <root>
        <mxCell id="0" />
        <mxCell id="1" parent="0" />
      </root>
    </mxGraphModel>
  </diagram>
</mxfile>
